<svg xmlns="http://www.w3.org/2000/svg" width="2560" height="1379" viewBox="0 0 2560 1379"><defs><style>.cls-1{fill:#e1eaea;}.cls-2{fill:#fff;}.cls-3{fill:#2e2351;}.cls-4{fill:#413368;}.cls-5{fill:#594677;}.cls-6{fill:none;stroke:#000;stroke-miterlimit:10;}.cls-7{fill:#816299;}.cls-8{fill:#441818;}.cls-9{fill:#6b2727;}.cls-10{fill:#f57200;}.cls-11{fill:#f79428;}.cls-12{fill:#b54131;}.cls-13{fill:#e04e3f;}.cls-14{fill:#eb7e35;}.cls-15{fill:#efa052;}.cls-16{fill:#f8cb3c;}.cls-17{fill:#f9dc8a;}.cls-18{fill:#de8937;}.cls-19{fill:#30562e;}.cls-20{fill:#677c48;}</style></defs><title>all-but-water-and-sky</title><g id="Layer_2" data-name="Layer 2"><g id="hills"><polygon class="cls-1" points="1244.96 0 689.11 1094.28 1800.81 1094.28 1244.96 0"/><polygon class="cls-2" points="1245.26 0.59 1244.42 1.72 1489.36 1094.28 1800.81 1094.28 1245.26 0.59"/><polygon class="cls-1" points="1531.35 178.78 799.52 1094.28 2263.18 1094.28 1531.35 178.78"/><path class="cls-3" d="M2099,1095.05c-241.59,0-288.21-605.23-581-605.46-320.57-.25-287.82,605.46-534.81,605.46"/><polygon class="cls-2" points="2099.81 1080.41 2263.18 1094.28 1531.35 178.78 1531.29 178.87 1531.1 402.26 2099.81 1080.41"/><polygon class="cls-1" points="2000.52 360.65 1562.15 1094.28 2438.89 1094.28 2000.52 360.65"/><path class="cls-4" d="M1884.32,1095.05H2099c-241.59,0-288.21-605.23-581-605.46-5.15,0-10.2.15-15.18.46Z"/><path class="cls-5" d="M1351.54,1095.05c259.23,11.26,187.88-344.84,492.43-346,269-1,277.33,353.86,537.89,345.24"/><polygon class="cls-1" points="848.18 266.63 344.34 1094.28 1352.03 1094.28 848.18 266.63"/><polygon class="cls-2" points="847.55 267.68 1150.35 1094.28 1352.03 1094.28 848.18 266.63 847.55 267.68"/><path class="cls-5" d="M425.26,1095.05c247,0,199.1-532.28,518.62-506.3,252.46,20.54,330.24,519.08,597.23,506.3"/><line class="cls-6" x1="983.18" y1="1095.05" x2="2001.17" y2="1095.05"/><polygon class="cls-2" points="2001.17 360.65 2263.18 1094.28 2438.89 1094.28 2001.17 360.65"/><path class="cls-7" d="M1541.11,1095.05h-19.68Q1531.11,1095.51,1541.11,1095.05Z"/><path class="cls-7" d="M1289,1095.05h232.41c-251.3-11.88-331.4-486.28-577.55-506.3-8.1-.66-16-.94-23.6-.9Z"/><path class="cls-7" d="M2381.86,1094.28h-18Q2372.67,1094.58,2381.86,1094.28Z"/><path class="cls-7" d="M1849.52,749.08l230.05,345.43,284.31-.22C2122.49,1086.45,2106.83,752.83,1849.52,749.08Z"/></g><g id="Layer_7" data-name="Layer 7"><rect class="cls-8" x="1419.37" y="1051.61" width="16.35" height="37.13"/><rect class="cls-9" x="1429.68" y="1051.61" width="6.04" height="37.13"/><polygon class="cls-10" points="1427.55 964.9 1379.3 1052.18 1475.79 1052.18 1427.55 964.9"/><polygon class="cls-11" points="1427.55 964.9 1457.39 1052.18 1475.79 1052.18 1427.55 964.9"/><polygon class="cls-10" points="1427.55 949.67 1388.06 1018.05 1467.03 1018.05 1427.55 949.67"/><polygon class="cls-11" points="1427.55 949.67 1451.57 1018.05 1467.03 1018.05 1427.55 949.67"/><polygon class="cls-10" points="1427.55 932.77 1395.87 987.62 1459.22 987.62 1427.55 932.77"/><polygon class="cls-11" points="1427.55 932.77 1444.92 987.62 1459.22 987.62 1427.55 932.77"/></g><g id="Layer_3" data-name="Layer 3"><rect class="cls-8" x="644.24" y="992.29" width="44.91" height="101.99"/><rect class="cls-9" x="672.57" y="992.29" width="16.58" height="101.99"/><polygon class="cls-12" points="666.7 754.11 534.17 993.86 799.22 993.86 666.7 754.11"/><polygon class="cls-13" points="666.7 754.11 748.68 993.86 799.22 993.86 666.7 754.11"/><polygon class="cls-12" points="666.7 712.25 558.24 900.1 775.15 900.1 666.7 712.25"/><polygon class="cls-13" points="666.7 712.25 732.7 900.1 775.15 900.1 666.7 712.25"/><polygon class="cls-12" points="666.7 665.82 579.69 816.52 753.7 816.52 666.7 665.82"/><polygon class="cls-13" points="666.7 665.82 714.43 816.52 753.7 816.52 666.7 665.82"/><rect class="cls-8" x="1714.06" y="1044.94" width="21.62" height="49.1"/><rect class="cls-9" x="1727.7" y="1044.94" width="7.98" height="49.1"/><polygon class="cls-12" points="1724.87 930.26 1661.06 1045.7 1788.67 1045.7 1724.87 930.26"/><polygon class="cls-13" points="1724.87 930.26 1764.34 1045.7 1788.67 1045.7 1724.87 930.26"/><polygon class="cls-12" points="1724.87 910.11 1672.65 1000.55 1777.09 1000.55 1724.87 910.11"/><polygon class="cls-13" points="1724.87 910.11 1756.64 1000.55 1777.09 1000.55 1724.87 910.11"/><polygon class="cls-12" points="1724.87 887.75 1682.98 960.31 1766.76 960.31 1724.87 887.75"/><polygon class="cls-13" points="1724.87 887.75 1747.85 960.31 1766.76 960.31 1724.87 887.75"/><rect class="cls-8" x="1253.81" y="1011.09" width="36.32" height="82.49"/><rect class="cls-9" x="1276.72" y="1011.09" width="13.41" height="82.49"/><polygon class="cls-12" points="1271.97 820.45 1164.78 1014.37 1379.16 1014.37 1271.97 820.45"/><polygon class="cls-13" points="1271.97 820.45 1338.28 1014.37 1379.16 1014.37 1271.97 820.45"/><polygon class="cls-12" points="1271.97 786.59 1184.25 938.53 1359.69 938.53 1271.97 786.59"/><polygon class="cls-13" points="1271.97 786.59 1325.35 938.53 1359.69 938.53 1271.97 786.59"/><polygon class="cls-12" points="1271.97 749.04 1201.6 870.93 1342.34 870.93 1271.97 749.04"/><polygon class="cls-13" points="1271.97 749.04 1310.58 870.93 1342.34 870.93 1271.97 749.04"/></g><g id="Layer_4" data-name="Layer 4"><rect class="cls-8" x="949.54" y="1016.87" width="33.64" height="76.41"/><rect class="cls-9" x="970.76" y="1016.87" width="12.42" height="76.41"/><polygon class="cls-14" points="966.36 839.44 867.08 1019.05 1065.64 1019.05 966.36 839.44"/><polygon class="cls-15" points="966.36 839.44 1027.78 1019.05 1065.64 1019.05 966.36 839.44"/><polygon class="cls-14" points="966.36 808.08 885.11 948.81 1047.61 948.81 966.36 808.08"/><polygon class="cls-15" points="966.36 808.08 1015.8 948.81 1047.61 948.81 966.36 808.08"/><polygon class="cls-14" points="966.36 773.3 901.18 886.2 1031.54 886.2 966.36 773.3"/><polygon class="cls-15" points="966.36 773.3 1002.12 886.2 1031.54 886.2 966.36 773.3"/><rect class="cls-8" x="2106.88" y="1033.25" width="25.19" height="57.22"/><rect class="cls-9" x="2122.77" y="1033.25" width="9.3" height="57.22"/><polygon class="cls-14" points="2119.48 899.62 2045.12 1034.13 2193.83 1034.13 2119.48 899.62"/><polygon class="cls-15" points="2119.48 899.62 2165.47 1034.13 2193.83 1034.13 2119.48 899.62"/><polygon class="cls-14" points="2119.48 876.13 2058.63 981.53 2180.33 981.53 2119.48 876.13"/><polygon class="cls-15" points="2119.48 876.13 2156.51 981.53 2180.33 981.53 2119.48 876.13"/><polygon class="cls-14" points="2119.48 850.08 2070.66 934.63 2168.29 934.63 2119.48 850.08"/><polygon class="cls-15" points="2119.48 850.08 2146.26 934.63 2168.29 934.63 2119.48 850.08"/><rect class="cls-8" x="604.44" y="1036.1" width="25.19" height="57.22"/><rect class="cls-9" x="620.33" y="1036.1" width="9.3" height="57.22"/><polygon class="cls-14" points="617.04 902.47 542.68 1036.99 691.39 1036.99 617.04 902.47"/><polygon class="cls-15" points="617.04 902.47 663.03 1036.99 691.39 1036.99 617.04 902.47"/><polygon class="cls-14" points="617.04 878.99 556.19 984.38 677.89 984.38 617.04 878.99"/><polygon class="cls-15" points="617.04 878.99 654.07 984.38 677.89 984.38 617.04 878.99"/><polygon class="cls-14" points="617.04 852.94 568.22 937.49 665.85 937.49 617.04 852.94"/><polygon class="cls-15" points="617.04 852.94 643.82 937.49 665.85 937.49 617.04 852.94"/></g><g id="Layer_5" data-name="Layer 5"><rect class="cls-8" x="1798.47" y="1020.52" width="30.6" height="69.5"/><rect class="cls-9" x="1817.77" y="1020.52" width="11.3" height="69.5"/><polygon class="cls-16" points="1813.77 858.22 1723.46 1021.6 1904.08 1021.6 1813.77 858.22"/><polygon class="cls-17" points="1813.77 858.22 1869.63 1021.6 1904.08 1021.6 1813.77 858.22"/><polygon class="cls-16" points="1813.77 829.69 1739.86 957.71 1887.68 957.71 1813.77 829.69"/><polygon class="cls-17" points="1813.77 829.69 1858.74 957.71 1887.68 957.71 1813.77 829.69"/><polygon class="cls-16" points="1813.77 798.05 1754.47 900.75 1873.06 900.75 1813.77 798.05"/><polygon class="cls-17" points="1813.77 798.05 1846.3 900.75 1873.06 900.75 1813.77 798.05"/><rect class="cls-8" x="224.02" y="1039.46" width="24.9" height="56.54"/><rect class="cls-9" x="239.72" y="1039.46" width="9.19" height="56.54"/><polygon class="cls-16" points="236.46 907.42 163 1040.33 309.93 1040.33 236.46 907.42"/><polygon class="cls-17" points="236.46 907.42 281.91 1040.33 309.93 1040.33 236.46 907.42"/><polygon class="cls-16" points="236.46 884.21 176.34 988.35 296.59 988.35 236.46 884.21"/><polygon class="cls-17" points="236.46 884.21 273.05 988.35 296.59 988.35 236.46 884.21"/><polygon class="cls-16" points="236.46 858.47 188.23 942.02 284.7 942.02 236.46 858.47"/><polygon class="cls-17" points="236.46 858.47 262.93 942.02 284.7 942.02 236.46 858.47"/></g><g id="Layer_6" data-name="Layer 6"><rect class="cls-8" x="1047.17" y="1028.8" width="28.73" height="65.25"/><rect class="cls-9" x="1065.29" y="1028.8" width="10.61" height="65.25"/><polygon class="cls-12" points="1061.53 876.42 976.75 1029.8 1146.32 1029.8 1061.53 876.42"/><polygon class="cls-13" points="1061.53 876.42 1113.98 1029.8 1146.32 1029.8 1061.53 876.42"/><polygon class="cls-12" points="1061.53 849.64 992.15 969.82 1130.92 969.82 1061.53 849.64"/><polygon class="cls-13" points="1061.53 849.64 1103.76 969.82 1130.92 969.82 1061.53 849.64"/><polygon class="cls-12" points="1061.53 819.94 1005.87 916.35 1117.19 916.35 1061.53 819.94"/><polygon class="cls-13" points="1061.53 819.94 1092.07 916.35 1117.19 916.35 1061.53 819.94"/></g><g id="Layer_8" data-name="Layer 8"><rect class="cls-18" y="1090" width="2560" height="289"/></g><g id="Layer_11" data-name="Layer 11"><rect class="cls-8" x="1552.6" y="1007.39" width="36.23" height="82.28"/><rect class="cls-9" x="1575.45" y="1007.39" width="13.38" height="82.28"/><polygon class="cls-19" points="1570.72 815.23 1463.8 1008.66 1677.63 1008.66 1570.72 815.23"/><polygon class="cls-20" points="1570.72 815.23 1636.86 1008.66 1677.63 1008.66 1570.72 815.23"/><polygon class="cls-19" points="1570.72 781.46 1483.21 933.02 1658.22 933.02 1570.72 781.46"/><polygon class="cls-20" points="1570.72 781.46 1623.96 933.02 1658.22 933.02 1570.72 781.46"/><polygon class="cls-19" points="1570.72 744 1500.52 865.58 1640.91 865.58 1570.72 744"/><polygon class="cls-20" points="1570.72 744 1609.23 865.58 1640.91 865.58 1570.72 744"/></g></g></svg>