<svg xmlns="http://www.w3.org/2000/svg" width="680.11" height="165.96" viewBox="0 0 680.11 165.96"><defs><style>.cls-1{fill:#e7ebf2;stroke:#fff;stroke-miterlimit:10;}</style></defs><title>cloud-4-light</title><g id="Layer_2" data-name="Layer 2"><g id="cloud_4_light" data-name="cloud 4 light"><path class="cls-1" d="M679.56,165.46C675,116.8,630.22,76.63,573.15,72.82a125.48,125.48,0,0,0-56.86,9.23,112.94,112.94,0,0,0-59.16-1.93,90.07,90.07,0,0,0-118.65-61,68.81,68.81,0,0,0-20-4.38,67.25,67.25,0,0,0-38.72,9A47.3,47.3,0,0,0,242.22.61c-26.17-1.75-48.82,18.27-50.59,44.72-.06,1-.09,1.92-.1,2.86A58.07,58.07,0,0,0,143.47,85C73.11,88.65,15.81,120.87.7,165.46Z"/></g></g></svg>