<svg xmlns="http://www.w3.org/2000/svg" width="1306.37" height="496.51" viewBox="0 0 1306.37 496.51"><defs><style>.cls-1{fill:#c2c4c6;stroke:#fff;stroke-miterlimit:10;}</style></defs><title>cloud-3-dark</title><g id="Layer_2" data-name="Layer 2"><g id="cloud_3_dark" data-name="cloud 3 dark"><path class="cls-1" d="M1305.85,496c-.87-20.37-20.64-37.06-47.09-41.7-6.68-27.56-35.09-47.92-68.72-47.24-1.3,0-2.59.09-3.88.18A73.5,73.5,0,0,0,1088.87,351a95,95,0,0,0-127.09,3.65c-5.77-30-28.31-54.5-58.41-65.61a83.3,83.3,0,0,0,12.31-44.92c-.86-42.55-35-78.18-82.34-91.44,10.18-15.24,15.81-32.73,15.44-51.23C847.62,44.28,789.61-.89,719.21.53a152.13,152.13,0,0,0-53.57,10.73,195.65,195.65,0,0,0-46.83-4.69C519,8.59,438.17,85.13,428.69,181.89c-21.79,2.3-41.08,10.47-55,22.28a73.49,73.49,0,0,0-95.37,99.17c-11.7,10.54-19.43,26.36-20.43,44.21a52,52,0,0,0-67.2,49.26,87.33,87.33,0,0,0-9-.3c-24.85.51-46.36,11.44-57.9,27.34-25.55,1.89-47,13.2-57.23,28.71a84.64,84.64,0,0,0-10.77-.49C24.8,452.7.08,470.22.51,491.2A25.59,25.59,0,0,0,1.07,496Z"/></g></g></svg>