<svg xmlns="http://www.w3.org/2000/svg" width="1335.55" height="447.63" viewBox="0 0 1335.55 447.63"><defs><style>.cls-1{fill:#b4bdbf;stroke:#fff;stroke-miterlimit:10;}</style></defs><title>cloud-1-dark</title><g id="Layer_2" data-name="Layer 2"><g id="cloud_1_dark" data-name="cloud 1 dark"><path class="cls-1" d="M1334.88,447.13c-10.05-33.11-32.4-56.38-59.08-57.26a47.75,47.75,0,0,0-11.66,1.07c-9.9-37.49-39.2-67.6-77.1-79.07a105.52,105.52,0,1,0-191.27-88.71c-29,15.65-50.61,45.32-57,81a140.9,140.9,0,0,0-35.15-5.59c-28.49-.93-54.55,6.48-73.63,19.22-12.75-33.34-48.37-58.05-91.14-59.64a78.54,78.54,0,0,0,1.42-12.46c1.45-44.44-34.73-81.69-80.82-83.2A84.72,84.72,0,0,0,596.68,187C575.1,142.5,527.86,110.69,472,108.37c-3.25-53.14-36-95.25-77.24-96.6-20.35-.67-39.27,8.69-54,24.68A101.52,101.52,0,0,0,169.59,62.69a71,71,0,0,0,2.51,135.72,87.49,87.49,0,0,0,12,122.08c-17.73,11.64-32.31,29.88-41.49,52.14a64.44,64.44,0,0,0-19.28-3.57c-19.3-.64-36.61,7.12-47.21,19.47A75.51,75.51,0,0,0,.63,447.13Z"/></g></g></svg>