<svg xmlns="http://www.w3.org/2000/svg" width="870.17" height="381" viewBox="0 0 870.17 381"><defs><style>.cls-1{fill:#d7dddd;stroke:#fff;stroke-miterlimit:10;}</style></defs><title>cloud-5-light</title><g id="Layer_2" data-name="Layer 2"><g id="cloud_5_light" data-name="cloud 5 light"><path class="cls-1" d="M869.41,380.5a71.07,71.07,0,0,0-57.71-42.6,64,64,0,0,0-62.54-50.4h-.51c-14.28-24.35-36.51-40-61.49-40a60.12,60.12,0,0,0-9.33.74,84.92,84.92,0,0,0-10-63.84,126.29,126.29,0,0,0,1.34-18.4c0-25.37-7.46-48.66-19.9-66.95C639,43,588.23.5,527.16.5,461.29.5,407.43,50,403.41,112.5h-.25c-59.35,0-108.8,43.95-119.74,102.17a96.09,96.09,0,0,0-20,16,53.28,53.28,0,0,0-24.8-6.21c-35.62,0-64.5,36.26-64.5,81a101,101,0,0,0,.79,12.65C134,321.15,98,334.42,73.38,353.83,34.68,360.17,7.78,369.65.91,380.5Z"/></g></g></svg>