<svg xmlns="http://www.w3.org/2000/svg" width="959.1" height="320.53" viewBox="0 0 959.1 320.53"><defs><style>.cls-1{fill:#e7ebf2;stroke:#fff;stroke-miterlimit:10;}</style></defs><title>cloud-2-light</title><g id="Layer_2" data-name="Layer 2"><g id="cloud_2_light" data-name="cloud 2 light"><path class="cls-1" d="M958.53,320c-2.2-16.84-25.35-31.66-56.85-37.55-7.5-18.05-22.07-30.56-39.32-31.34A37.9,37.9,0,0,0,850,252.65c-11.21-13.57-26.74-22.3-44.22-23.09a58.8,58.8,0,0,0-36.08,10.61,57.45,57.45,0,0,0-33.39-12.75,56.6,56.6,0,0,0-24.82,4.51c.12-1.53.23-3.07.3-4.62,2.79-61.79-39-113.88-93.34-116.34-.89,0-1.77-.07-2.66-.08a177,177,0,0,0-338.52,36.92c-24.76,1.22-46.3,23.2-55,53.91a51.74,51.74,0,0,0-18.67-4.41c-27-1.22-50.75,18.69-60.1,47.35a39.83,39.83,0,0,0-28.74,11.27,145.09,145.09,0,0,0-21.31-2.55c-49.93-2.25-91.54,21-92.93,51.86A36.4,36.4,0,0,0,3,320Z"/></g></g></svg>