<svg id="hills" xmlns="http://www.w3.org/2000/svg" width="2560" height="1440" viewBox="0 0 2560 1440"><defs><style>.cls-1{fill:#2e2351;}.cls-2{fill:#413368;}.cls-3{fill:#594677;}.cls-4{fill:#816299;}</style></defs><title>hills-2</title><path class="cls-1" d="M2099,1152.31c-241.59,0-288.21-605.23-581-605.46-320.57-.24-287.82,605.46-534.81,605.46"/><path class="cls-2" d="M1884.32,1152.31H2099c-241.59,0-288.21-605.23-581-605.46-5.15,0-10.2.16-15.18.46Z"/><path class="cls-3" d="M1351.54,1152.05c259.23,11.26,187.88-344.84,492.43-346,269-1,277.33,353.86,537.89,345.24"/><path class="cls-3" d="M425.26,1152.07c247,0,199.1-532.28,518.62-506.3,252.46,20.54,330.24,519.08,597.23,506.3"/><path class="cls-4" d="M1541.11,1152.08h-19.68C1527.88,1152.38,1534.43,1152.4,1541.11,1152.08Z"/><path class="cls-4" d="M1289,1152.08h232.41c-251.3-11.88-331.4-486.28-577.55-506.3-8.1-.66-16-.94-23.6-.9Z"/><path class="cls-4" d="M2381.86,1152.09h-18Q2372.67,1152.39,2381.86,1152.09Z"/><path class="cls-4" d="M1849.52,806.88l230.05,345.43,284.31-.21C2122.49,1144.26,2106.83,810.63,1849.52,806.88Z"/></svg>