<svg id="mountains" xmlns="http://www.w3.org/2000/svg" width="2560" height="1440" viewBox="0 0 2560 1440"><defs><style>.cls-1{fill:#e1eaea;}.cls-2{fill:#fff;}</style></defs><title>mountains-2</title><polygon class="cls-1" points="1244.96 58.03 689.11 1152.31 1800.81 1152.31 1244.96 58.03"/><polygon class="cls-2" points="1245.26 58.63 1244.42 59.76 1489.36 1152.31 1800.81 1152.31 1245.26 58.63"/><polygon class="cls-1" points="1531.35 236.82 799.52 1152.31 2263.18 1152.31 1531.35 236.82"/><polygon class="cls-2" points="2099.81 1138.44 2263.18 1152.31 1531.35 236.82 1531.29 236.9 1575 445.03 2099.81 1138.44"/><polygon class="cls-1" points="2000.52 418.68 1562.15 1152.31 2438.89 1152.31 2000.52 418.68"/><polygon class="cls-1" points="848.18 324.67 344.34 1152.31 1352.03 1152.31 848.18 324.67"/><polygon class="cls-2" points="847.55 325.71 1150.35 1152.31 1352.03 1152.31 848.18 324.67 847.55 325.71"/><polygon class="cls-2" points="2001.17 418.68 2263.18 1152.31 2438.89 1152.31 2001.17 418.68"/></svg>