<svg width="595.701" height="87.603" viewBox="0 0 595.701 87.603" xmlns="http://www.w3.org/2000/svg"><g id="svgGroup" stroke-linecap="round" fill-rule="evenodd" font-size="9pt" stroke="#000" stroke-width="0.25mm" fill="none" style="stroke:#000;stroke-width:0.25mm;fill:none"><path d="M 89.357 77.795 A 54.136 54.136 0 0 0 89.685 77.476 A 18.867 18.867 0 0 0 91.601 79.7 Q 97.401 85.4 107.901 85.4 Q 115.601 85.4 122.351 81.6 A 53.631 53.631 0 0 0 124.115 80.563 A 42.1 42.1 0 0 0 127.504 78.267 A 32.647 32.647 0 0 0 127.602 78.771 A 16.809 16.809 0 0 0 128.351 81.4 A 8.457 8.457 0 0 0 129.092 82.889 Q 129.92 84.19 131.127 84.817 A 5.504 5.504 0 0 0 133.701 85.4 A 10.201 10.201 0 0 0 134.688 85.355 Q 137.042 85.126 138.251 83.75 A 5.867 5.867 0 0 0 138.901 82.827 Q 139.955 81.016 140.801 77.4 A 80.755 80.755 0 0 1 141.318 75.368 A 90.455 90.455 0 0 1 144.251 66.4 A 75.388 75.388 0 0 1 145.267 63.885 Q 146.121 61.881 146.997 60.182 A 37.32 37.32 0 0 1 148.701 57.2 A 26.134 26.134 0 0 1 149.067 56.643 Q 150.497 54.525 151.601 53.881 A 1.804 1.804 0 0 1 152.501 53.6 A 1.452 1.452 0 0 1 152.56 53.602 Q 153.392 53.636 153.559 54.636 A 3.445 3.445 0 0 1 153.601 55.2 A 15.446 15.446 0 0 1 153.585 55.863 Q 153.512 57.541 153.113 61.011 A 264.391 264.391 0 0 1 152.801 63.6 A 178.447 178.447 0 0 0 152.492 65.93 Q 152.035 69.577 151.88 72.194 A 41.155 41.155 0 0 0 151.801 74.6 Q 151.801 76.71 152.163 78.522 A 13.837 13.837 0 0 0 153.451 82.25 A 7.682 7.682 0 0 0 153.959 83.09 Q 154.771 84.252 155.89 84.829 A 5.393 5.393 0 0 0 158.401 85.4 Q 160.076 85.4 161.271 84.962 A 4.39 4.39 0 0 0 163.051 83.8 A 5.638 5.638 0 0 0 163.761 82.788 Q 164.441 81.585 165.034 79.585 A 36.157 36.157 0 0 0 165.601 77.4 Q 167.101 71.3 169.501 65.8 Q 171.901 60.3 174.301 56.95 A 27.276 27.276 0 0 1 174.907 56.135 Q 176.87 53.6 178.001 53.6 A 1.452 1.452 0 0 1 178.06 53.602 Q 178.892 53.636 179.059 54.636 A 3.445 3.445 0 0 1 179.101 55.2 A 10.115 10.115 0 0 1 179.097 55.479 Q 179.046 57.337 178.339 61.161 A 135.129 135.129 0 0 1 177.801 63.9 A 187.798 187.798 0 0 0 177.603 64.932 Q 176.715 69.64 176.483 72.286 A 18.845 18.845 0 0 0 176.401 73.9 A 21.172 21.172 0 0 0 176.489 75.872 Q 176.651 77.607 177.113 79.037 A 9.508 9.508 0 0 0 179.001 82.45 Q 180.768 84.455 183.69 85.098 A 14.03 14.03 0 0 0 186.701 85.4 Q 193.001 85.4 197.951 82 A 39.649 39.649 0 0 0 201.866 78.924 A 47.961 47.961 0 0 0 202.007 78.797 A 16.809 16.809 0 0 0 202.751 81.4 A 8.457 8.457 0 0 0 203.492 82.889 Q 204.32 84.19 205.527 84.817 A 5.504 5.504 0 0 0 208.101 85.4 A 10.201 10.201 0 0 0 209.088 85.355 Q 211.442 85.126 212.651 83.75 A 5.867 5.867 0 0 0 213.301 82.827 Q 214.355 81.016 215.201 77.4 Q 216.701 71.3 219.151 65.8 Q 220.682 62.363 222.174 59.765 A 37.022 37.022 0 0 1 223.951 56.95 A 26.699 26.699 0 0 1 224.545 56.135 Q 226.47 53.6 227.601 53.6 A 1.452 1.452 0 0 1 227.66 53.602 Q 228.492 53.636 228.659 54.636 A 3.445 3.445 0 0 1 228.701 55.2 A 10.115 10.115 0 0 1 228.697 55.479 Q 228.646 57.337 227.939 61.161 A 135.129 135.129 0 0 1 227.401 63.9 A 187.798 187.798 0 0 0 227.203 64.932 Q 226.315 69.64 226.083 72.286 A 18.845 18.845 0 0 0 226.001 73.9 A 21.172 21.172 0 0 0 226.089 75.872 Q 226.251 77.607 226.713 79.037 A 9.508 9.508 0 0 0 228.601 82.45 Q 230.368 84.455 233.29 85.098 A 14.03 14.03 0 0 0 236.301 85.4 Q 242.601 85.4 247.551 82 A 39.649 39.649 0 0 0 251.466 78.924 A 47.961 47.961 0 0 0 252.152 78.297 A 17.114 17.114 0 0 0 253.451 80.8 A 9.47 9.47 0 0 0 259.185 84.951 A 14.405 14.405 0 0 0 262.901 85.4 A 13.017 13.017 0 0 0 265.884 85.046 Q 270.999 83.845 276.551 78.576 A 57.215 57.215 0 0 0 281.401 73.3 A 6.749 6.749 0 0 0 282.223 72.105 A 73.247 73.247 0 0 0 283.351 70.7 A 44.956 44.956 0 0 0 284.484 69.184 Q 286.976 65.706 289.501 60.9 Q 290.245 61.75 291.045 62.756 A 73.558 73.558 0 0 1 292.501 64.65 Q 294.101 66.8 295.151 69.1 Q 296.201 71.4 296.301 74 A 40.679 40.679 0 0 1 295.832 73.945 Q 294.991 73.842 293.651 73.65 Q 291.901 73.4 290.601 73.4 Q 286.901 73.4 285.001 75.3 A 7.796 7.796 0 0 0 284.942 75.36 A 6.138 6.138 0 0 0 283.101 79.8 A 6.34 6.34 0 0 0 284.285 83.479 A 9.419 9.419 0 0 0 285.851 85.2 Q 288.601 87.6 293.801 87.6 Q 299.301 87.6 303.301 84.2 A 39.966 39.966 0 0 0 305.043 84.111 Q 307.598 83.923 309.813 83.409 A 21.732 21.732 0 0 0 314.551 81.75 A 19.456 19.456 0 0 0 317.783 79.698 Q 319.376 78.47 321.02 76.79 A 48.689 48.689 0 0 0 324.101 73.3 A 7.94 7.94 0 0 0 324.174 73.207 Q 326.001 70.827 326.001 67.1 Q 326.001 65.87 325.743 64.948 A 4.376 4.376 0 0 0 325.251 63.8 A 3.165 3.165 0 0 0 324.95 63.393 A 2.225 2.225 0 0 0 323.201 62.6 A 3.137 3.137 0 0 0 321.341 63.218 A 4.764 4.764 0 0 0 320.501 64 A 73.384 73.384 0 0 1 318.424 66.473 Q 314.992 70.372 312.06 72.417 A 14.721 14.721 0 0 1 309.001 74.1 A 50.435 50.435 0 0 0 309.084 73.301 Q 309.201 72.066 309.201 71.3 Q 309.201 67.8 307.551 64.85 Q 306.468 62.914 304.718 60.44 A 96.454 96.454 0 0 0 302.701 57.7 A 73.042 73.042 0 0 1 302.502 57.456 Q 301.124 55.749 300.219 54.413 A 21.516 21.516 0 0 1 299.451 53.2 Q 298.877 52.216 298.617 51.321 A 5.085 5.085 0 0 1 298.401 49.9 Q 298.401 48.182 299.252 45.943 A 23.412 23.412 0 0 1 300.201 43.8 A 16.071 16.071 0 0 0 300.453 43.313 A 14.116 14.116 0 0 0 301.301 41.2 A 16.869 16.869 0 0 0 301.47 40.615 Q 301.701 39.756 301.701 39.3 A 1.583 1.583 0 0 0 301.157 38.05 A 2.248 2.248 0 0 0 300.601 37.7 A 3.822 3.822 0 0 0 299.92 37.476 Q 299.163 37.293 297.995 37.232 A 24.733 24.733 0 0 0 296.701 37.2 A 16.214 16.214 0 0 0 296.598 37.201 Q 290.685 37.238 288.801 41.6 Q 286.601 46.8 284.301 51.65 Q 282.72 54.985 281.422 57.397 A 62.792 62.792 0 0 1 280.301 59.4 A 57.531 57.531 0 0 1 280.04 59.807 Q 278.163 62.702 275.175 66.585 A 212.651 212.651 0 0 1 272.325 70.199 A 77.791 77.791 0 0 1 272.262 70.265 A 42.627 42.627 0 0 1 270.601 71.9 Q 267.901 74.4 266.101 74.4 A 3.986 3.986 0 0 1 265.564 74.366 Q 264.762 74.256 264.194 73.806 A 2.931 2.931 0 0 1 263.401 72.8 Q 262.601 71.2 262.601 68.2 A 18.033 18.033 0 0 1 262.646 66.995 Q 262.858 63.856 264.066 57.773 A 243.091 243.091 0 0 1 265.001 53.3 A 333.394 333.394 0 0 0 265.055 53.043 Q 266.499 46.1 266.813 43.079 A 13.831 13.831 0 0 0 266.901 41.7 Q 266.901 38.964 263.599 38.43 A 11.317 11.317 0 0 0 261.801 38.3 Q 259.687 38.3 258.312 38.793 A 4.516 4.516 0 0 0 257.001 39.5 A 4.047 4.047 0 0 0 256.726 39.742 Q 255.823 40.609 255.155 42.259 A 15.701 15.701 0 0 0 254.601 43.9 A 96.723 96.723 0 0 0 253.342 48.609 A 115.141 115.141 0 0 0 251.651 57.05 Q 250.896 61.677 250.637 65.205 A 46.575 46.575 0 0 0 250.53 67.114 A 116.605 116.605 0 0 1 249.441 68.326 Q 247.366 70.601 245.851 71.95 A 18.563 18.563 0 0 1 245.286 72.434 Q 243.811 73.646 242.565 74.111 A 4.196 4.196 0 0 1 241.101 74.4 A 4.066 4.066 0 0 1 240.972 74.398 Q 238.766 74.328 238.316 71.835 A 8.127 8.127 0 0 1 238.201 70.4 A 12.459 12.459 0 0 1 238.238 69.499 Q 238.409 67.174 239.361 62.424 A 209.257 209.257 0 0 1 240.101 58.9 Q 241.768 51.171 242.172 47.059 A 23.598 23.598 0 0 0 242.301 44.8 A 9.576 9.576 0 0 0 242.024 42.393 Q 241.258 39.449 238.373 38.623 A 9.357 9.357 0 0 0 235.801 38.3 A 10.337 10.337 0 0 0 234.066 38.452 Q 231.488 38.89 228.551 40.6 A 18.98 18.98 0 0 0 226.229 42.209 Q 223.403 44.478 220.501 48.3 A 39.284 39.284 0 0 0 218.853 50.65 Q 215.724 55.464 213.101 62.3 A 103.09 103.09 0 0 1 213.37 59.687 Q 213.688 56.963 214.101 54.9 A 111.739 111.739 0 0 1 214.515 52.928 Q 215.013 50.65 215.701 47.9 A 131.293 131.293 0 0 0 216.206 45.961 Q 216.934 43.066 217.129 41.591 A 7.037 7.037 0 0 0 217.201 40.7 Q 217.201 40.039 217.022 39.578 A 1.541 1.541 0 0 0 216.401 38.8 A 2.213 2.213 0 0 0 215.984 38.602 Q 215.155 38.3 213.601 38.3 A 17.019 17.019 0 0 0 211.79 38.391 Q 210.697 38.509 209.789 38.776 A 7.202 7.202 0 0 0 207.851 39.65 A 6.654 6.654 0 0 0 205.738 41.943 A 9.683 9.683 0 0 0 204.901 43.9 A 76.942 76.942 0 0 0 204.345 45.736 A 81.944 81.944 0 0 0 201.213 66.793 A 116.605 116.605 0 0 1 199.841 68.326 Q 197.766 70.601 196.251 71.95 A 18.563 18.563 0 0 1 195.686 72.434 Q 194.211 73.646 192.965 74.111 A 4.196 4.196 0 0 1 191.501 74.4 A 4.066 4.066 0 0 1 191.372 74.398 Q 189.166 74.328 188.716 71.835 A 8.127 8.127 0 0 1 188.601 70.4 A 12.459 12.459 0 0 1 188.638 69.499 Q 188.809 67.174 189.761 62.424 A 209.257 209.257 0 0 1 190.501 58.9 Q 192.168 51.171 192.572 47.059 A 23.598 23.598 0 0 0 192.701 44.8 A 9.576 9.576 0 0 0 192.424 42.393 Q 191.658 39.449 188.773 38.623 A 9.357 9.357 0 0 0 186.201 38.3 A 11.699 11.699 0 0 0 181.943 39.153 Q 180.143 39.854 178.261 41.131 A 30.349 30.349 0 0 0 174.801 43.9 A 24.279 24.279 0 0 0 174.731 43.965 Q 170.577 47.809 166.933 54.767 A 80.726 80.726 0 0 0 163.701 61.8 A 123.014 123.014 0 0 1 163.702 61.796 Q 163.927 60.447 164.432 58.088 A 228.8 228.8 0 0 1 164.801 56.4 Q 166.241 50.035 166.589 46.655 A 18.458 18.458 0 0 0 166.701 44.8 A 12.369 12.369 0 0 0 166.611 43.259 Q 166.495 42.337 166.229 41.589 A 4.939 4.939 0 0 0 165.251 39.9 A 3.615 3.615 0 0 0 165.15 39.793 Q 163.682 38.3 160.301 38.3 A 9.832 9.832 0 0 0 158.551 38.461 Q 155.829 38.953 152.851 40.95 A 20.976 20.976 0 0 0 151.01 42.344 Q 148.022 44.866 145.151 49 A 39.608 39.608 0 0 0 144.629 49.772 Q 141.211 54.949 138.701 62.2 Q 139.101 57.8 139.701 54.85 A 117.266 117.266 0 0 1 140.115 52.904 Q 140.342 51.88 140.607 50.753 A 217.888 217.888 0 0 1 141.301 47.9 A 131.293 131.293 0 0 0 141.806 45.961 Q 142.534 43.066 142.729 41.591 A 7.037 7.037 0 0 0 142.801 40.7 Q 142.801 40.039 142.622 39.578 A 1.541 1.541 0 0 0 142.001 38.8 A 2.213 2.213 0 0 0 141.584 38.602 Q 140.755 38.3 139.201 38.3 A 17.019 17.019 0 0 0 137.39 38.391 Q 136.297 38.509 135.389 38.776 A 7.202 7.202 0 0 0 133.451 39.65 A 6.654 6.654 0 0 0 131.338 41.943 A 9.683 9.683 0 0 0 130.501 43.9 A 76.942 76.942 0 0 0 129.945 45.736 A 81.944 81.944 0 0 0 126.816 66.619 A 33.852 33.852 0 0 1 119.251 72.25 A 34.393 34.393 0 0 1 116.55 73.587 Q 112.415 75.4 109.001 75.4 A 19.888 19.888 0 0 1 108.024 75.377 Q 106.153 75.285 104.635 74.832 A 8.254 8.254 0 0 1 99.501 70.8 Q 107.256 68.894 112.053 66.103 A 20.43 20.43 0 0 0 116.251 62.95 Q 121.201 58 121.201 51.1 A 16.681 16.681 0 0 0 120.892 47.813 A 11.46 11.46 0 0 0 117.701 41.75 Q 114.201 38.3 108.401 38.3 Q 101.901 38.3 96.751 41.8 Q 91.601 45.3 88.701 51.25 Q 85.801 57.2 85.801 64.1 A 27.897 27.897 0 0 0 86.082 68.23 A 43.109 43.109 0 0 1 84.455 69.805 A 23.845 23.845 0 0 1 82.601 71.35 A 12.538 12.538 0 0 1 81.364 72.162 A 9.657 9.657 0 0 1 76.501 73.5 A 8.276 8.276 0 0 1 72.72 72.614 A 9.795 9.795 0 0 1 70.151 70.7 Q 68.255 68.77 66.335 65.318 A 54.218 54.218 0 0 1 64.601 61.9 Q 62.895 58.225 61.188 55.713 A 21.88 21.88 0 0 0 59.401 53.4 Q 56.801 50.5 52.001 49.2 A 42.028 42.028 0 0 0 57.377 47.405 A 32.565 32.565 0 0 0 64.901 43.1 Q 70.201 39 72.851 33.65 A 28.263 28.263 0 0 0 73.172 32.981 A 24.23 24.23 0 0 0 75.501 22.7 A 25.524 25.524 0 0 0 75.489 21.905 A 21.261 21.261 0 0 0 72.351 11.2 A 18.769 18.769 0 0 0 67.737 6.151 A 24.958 24.958 0 0 0 62.701 3.2 A 27.857 27.857 0 0 0 60.009 2.167 Q 56.97 1.173 53.365 0.708 A 52.992 52.992 0 0 0 46.601 0.3 A 54.862 54.862 0 0 0 40.719 0.609 A 43.957 43.957 0 0 0 22.251 6.75 A 40.595 40.595 0 0 0 13.919 13.495 A 46.187 46.187 0 0 0 5.851 25.4 A 50.569 50.569 0 0 0 5.641 25.844 Q 0.001 37.905 0.001 54.4 Q 0.001 63.4 2.801 70.45 A 30.546 30.546 0 0 0 4.891 74.743 A 23.27 23.27 0 0 0 10.751 81.45 Q 15.901 85.4 22.601 85.4 A 20.602 20.602 0 0 0 24.239 85.337 Q 26.107 85.188 27.639 84.686 A 9.386 9.386 0 0 0 31.701 82.15 A 12.494 12.494 0 0 0 33.158 80.215 Q 34.12 78.652 34.777 76.657 A 25.521 25.521 0 0 0 35.701 72.8 Q 35.863 71.907 36.422 68.438 A 1721.265 1721.265 0 0 0 36.701 66.7 A 5292.575 5292.575 0 0 1 37.218 63.684 Q 38.343 57.135 38.798 54.604 A 116.729 116.729 0 0 1 39.001 53.5 A 10.978 10.978 0 0 1 40.681 53.816 A 8.341 8.341 0 0 1 43.551 55.2 Q 44.823 56.163 46.118 58 A 25.863 25.863 0 0 1 47.301 59.85 A 67.667 67.667 0 0 1 48.268 61.569 Q 49.974 64.694 52.501 69.9 A 67.154 67.154 0 0 0 52.843 70.6 Q 55.375 75.696 58.076 78.903 A 20.052 20.052 0 0 0 61.151 81.9 Q 65.701 85.4 72.201 85.4 A 25.597 25.597 0 0 0 75.827 85.151 A 19.712 19.712 0 0 0 83.801 82.25 Q 86.595 80.454 89.357 77.795 Z M 421.295 84.629 A 13.778 13.778 0 0 0 426.001 85.4 Q 433.901 85.4 439.101 77 A 16.672 16.672 0 0 0 440.122 79.303 A 12.716 12.716 0 0 0 443.251 83.15 A 11.7 11.7 0 0 0 443.684 83.488 A 9.221 9.221 0 0 0 449.301 85.4 A 10.999 10.999 0 0 0 451.346 85.206 Q 453.183 84.859 455.074 83.893 A 20.867 20.867 0 0 0 458.201 81.9 A 44.987 44.987 0 0 0 461.581 79.05 A 54.085 54.085 0 0 0 463.019 77.655 A 20.082 20.082 0 0 0 463.656 79.598 A 11.492 11.492 0 0 0 465.051 82.2 A 9.49 9.49 0 0 0 465.094 82.259 Q 467.438 85.4 471.501 85.4 Q 475.201 85.4 478.101 83.3 Q 481.001 81.2 485.001 75.5 A 223.807 223.807 0 0 0 486.922 72.712 A 192.82 192.82 0 0 0 491.401 65.8 Q 495.301 67 499.701 67 A 35.299 35.299 0 0 0 500.992 66.977 A 30.965 30.965 0 0 0 504.206 66.706 A 27.897 27.897 0 0 0 504.682 69.945 A 18.867 18.867 0 0 0 509.901 79.7 Q 515.701 85.4 526.201 85.4 Q 533.901 85.4 540.651 81.6 A 53.631 53.631 0 0 0 542.415 80.563 A 42.1 42.1 0 0 0 543.676 79.765 A 4.863 4.863 0 0 0 545.147 79.121 A 7.358 7.358 0 0 0 546.401 78.1 A 73.247 73.247 0 0 0 548.051 76.446 A 28.996 28.996 0 0 0 551.101 73.3 A 6.749 6.749 0 0 0 551.923 72.105 A 73.247 73.247 0 0 0 553.051 70.7 A 44.956 44.956 0 0 0 554.184 69.184 Q 556.676 65.706 559.201 60.9 Q 559.945 61.75 560.745 62.756 A 73.558 73.558 0 0 1 562.201 64.65 Q 563.801 66.8 564.851 69.1 Q 565.901 71.4 566.001 74 A 40.679 40.679 0 0 1 565.532 73.945 Q 564.691 73.842 563.351 73.65 Q 561.601 73.4 560.301 73.4 Q 556.601 73.4 554.701 75.3 A 7.796 7.796 0 0 0 554.642 75.36 A 6.138 6.138 0 0 0 552.801 79.8 A 6.34 6.34 0 0 0 553.985 83.479 A 9.419 9.419 0 0 0 555.551 85.2 Q 558.301 87.6 563.501 87.6 Q 569.001 87.6 573.001 84.2 A 39.966 39.966 0 0 0 574.743 84.111 Q 577.298 83.923 579.513 83.409 A 21.732 21.732 0 0 0 584.251 81.75 A 19.456 19.456 0 0 0 587.483 79.698 Q 589.076 78.47 590.72 76.79 A 48.689 48.689 0 0 0 593.801 73.3 A 7.94 7.94 0 0 0 593.874 73.207 Q 595.701 70.827 595.701 67.1 Q 595.701 65.87 595.443 64.948 A 4.376 4.376 0 0 0 594.951 63.8 A 3.165 3.165 0 0 0 594.65 63.393 A 2.225 2.225 0 0 0 592.901 62.6 A 3.137 3.137 0 0 0 591.041 63.218 A 4.764 4.764 0 0 0 590.201 64 A 73.384 73.384 0 0 1 588.124 66.473 Q 584.692 70.372 581.76 72.417 A 14.721 14.721 0 0 1 578.701 74.1 A 50.435 50.435 0 0 0 578.784 73.301 Q 578.901 72.066 578.901 71.3 Q 578.901 67.8 577.251 64.85 Q 576.168 62.914 574.418 60.44 A 96.454 96.454 0 0 0 572.401 57.7 A 73.042 73.042 0 0 1 572.202 57.456 Q 570.824 55.749 569.919 54.413 A 21.516 21.516 0 0 1 569.151 53.2 Q 568.577 52.216 568.317 51.321 A 5.085 5.085 0 0 1 568.101 49.9 Q 568.101 48.182 568.952 45.943 A 23.412 23.412 0 0 1 569.901 43.8 A 16.071 16.071 0 0 0 570.153 43.313 A 14.116 14.116 0 0 0 571.001 41.2 A 16.869 16.869 0 0 0 571.17 40.615 Q 571.401 39.756 571.401 39.3 A 1.583 1.583 0 0 0 570.857 38.05 A 2.248 2.248 0 0 0 570.301 37.7 A 3.822 3.822 0 0 0 569.62 37.476 Q 568.863 37.293 567.695 37.232 A 24.733 24.733 0 0 0 566.401 37.2 A 16.214 16.214 0 0 0 566.298 37.201 Q 560.385 37.238 558.501 41.6 Q 556.301 46.8 554.001 51.65 Q 552.42 54.985 551.122 57.397 A 62.792 62.792 0 0 1 550.001 59.4 A 57.531 57.531 0 0 1 549.74 59.807 Q 547.863 62.702 544.875 66.585 A 212.651 212.651 0 0 1 544.103 67.58 A 33.852 33.852 0 0 1 537.551 72.25 A 34.393 34.393 0 0 1 534.85 73.587 Q 530.715 75.4 527.301 75.4 A 19.888 19.888 0 0 1 526.324 75.377 Q 524.453 75.285 522.935 74.832 A 8.254 8.254 0 0 1 517.801 70.8 Q 525.556 68.894 530.353 66.103 A 20.43 20.43 0 0 0 534.551 62.95 Q 539.501 58 539.501 51.1 A 16.681 16.681 0 0 0 539.192 47.813 A 11.46 11.46 0 0 0 536.001 41.75 Q 532.501 38.3 526.701 38.3 Q 520.201 38.3 515.051 41.8 Q 509.901 45.3 507.001 51.25 A 28.937 28.937 0 0 0 505.363 55.424 A 105.32 105.32 0 0 1 503.002 55.841 Q 501.398 56.104 500.02 56.268 A 40.387 40.387 0 0 1 497.401 56.5 A 41.389 41.389 0 0 0 498.26 54.246 Q 498.99 52.144 499.374 50.229 A 20.519 20.519 0 0 0 499.801 46.2 Q 499.801 42.3 498.001 40.25 A 5.819 5.819 0 0 0 495.609 38.586 A 6.656 6.656 0 0 0 493.301 38.2 Q 490.001 38.2 487.401 40.2 A 13.143 13.143 0 0 0 485.848 41.605 A 14.381 14.381 0 0 0 483.301 45.4 Q 481.801 48.6 481.801 52 A 17.937 17.937 0 0 0 482.088 55.29 A 12.999 12.999 0 0 0 483.301 58.9 A 107.385 107.385 0 0 1 482.154 60.875 Q 479.246 65.765 474.301 73.1 A 774.738 774.738 0 0 1 474.271 72.7 Q 473.334 60.301 473.038 51.062 A 246.872 246.872 0 0 1 472.901 43.2 A 9.201 9.201 0 0 0 472.808 41.846 Q 472.704 41.149 472.483 40.597 A 3.358 3.358 0 0 0 471.651 39.35 Q 470.767 38.537 469.208 38.299 A 9.341 9.341 0 0 0 467.801 38.2 A 14.283 14.283 0 0 0 465.983 38.308 Q 465.048 38.429 464.288 38.683 A 5.431 5.431 0 0 0 462.701 39.5 Q 461.001 40.8 460.901 44.1 L 460.901 47.6 A 206.121 206.121 0 0 0 460.967 52.715 Q 461.077 57.137 461.37 62.093 A 379.934 379.934 0 0 0 461.622 65.98 A 124.926 124.926 0 0 1 459.552 68.326 Q 457.488 70.601 456.001 71.95 Q 453.301 74.4 451.401 74.4 A 3.041 3.041 0 0 1 451.18 74.392 A 2.394 2.394 0 0 1 449.451 73.5 A 2.866 2.866 0 0 1 449.249 73.226 Q 448.931 72.737 448.798 72.101 A 4.872 4.872 0 0 1 448.701 71.1 A 19.067 19.067 0 0 1 448.704 70.781 Q 448.761 67.351 450.022 60.26 A 245.902 245.902 0 0 1 451.001 55.1 A 306.979 306.979 0 0 0 451.188 54.109 Q 452.501 47.065 452.501 45.1 A 4.851 4.851 0 0 0 452.499 44.959 Q 452.401 41.6 447.601 41.6 Q 445.301 41.6 443.201 42 A 16.337 16.337 0 0 0 443.034 41.328 Q 442.58 39.664 441.951 38.95 A 1.767 1.767 0 0 0 441.57 38.629 Q 440.737 38.1 439.001 38.1 A 21.082 21.082 0 0 0 432.799 39.025 A 24.014 24.014 0 0 0 425.951 42.45 Q 419.801 46.8 416.101 53.95 Q 412.401 61.1 412.401 69.1 A 28.402 28.402 0 0 0 412.403 69.459 Q 412.492 76.511 416.101 80.9 A 11.86 11.86 0 0 0 421.295 84.629 Z M 363.783 85.104 A 57.055 57.055 0 0 0 372.301 85.7 A 64.304 64.304 0 0 0 376.978 85.535 Q 388.743 84.677 396.251 79.35 Q 405.201 73 405.201 61.2 A 21.435 21.435 0 0 0 404.929 57.725 A 15.881 15.881 0 0 0 401.951 50.6 Q 398.701 46.3 394.101 43.8 A 78.706 78.706 0 0 0 390.759 42.095 Q 388.927 41.21 386.771 40.261 A 191.837 191.837 0 0 0 381.901 38.2 A 226.021 226.021 0 0 1 380.709 37.724 Q 375.263 35.526 372.101 33.9 A 22.316 22.316 0 0 1 370.727 33.132 A 18.835 18.835 0 0 1 366.251 29.4 A 9.36 9.36 0 0 1 364.554 26.602 A 10.222 10.222 0 0 1 363.901 22.9 A 13.68 13.68 0 0 1 363.92 22.165 Q 364.057 19.631 365.148 17.632 A 10.437 10.437 0 0 1 368.451 14.05 A 15.127 15.127 0 0 1 372.365 12.153 Q 376.178 10.9 381.601 10.9 Q 387.701 10.9 391.801 13.1 A 9.745 9.745 0 0 1 393.423 14.179 A 6.595 6.595 0 0 1 395.901 19.5 A 4.82 4.82 0 0 1 395.901 19.551 Q 395.894 20.229 395.703 22.253 A 184.049 184.049 0 0 1 395.601 23.3 A 16.701 16.701 0 0 0 395.396 24.758 A 21.071 21.071 0 0 0 395.301 26.8 A 4.813 4.813 0 0 0 395.87 29.115 A 5.63 5.63 0 0 0 397.051 30.6 A 5.903 5.903 0 0 0 399.219 31.872 A 6.976 6.976 0 0 0 401.401 32.2 Q 405.101 32.2 407.001 29 Q 408.367 26.7 408.751 22.799 A 33.774 33.774 0 0 0 408.901 19.5 A 20.704 20.704 0 0 0 408.783 17.265 A 15.76 15.76 0 0 0 405.251 8.7 A 19.939 19.939 0 0 0 401.14 4.966 A 24.132 24.132 0 0 0 395.501 2.15 A 36.201 36.201 0 0 0 390.347 0.758 A 43.285 43.285 0 0 0 382.101 0 A 61.256 61.256 0 0 0 381.529 0.003 Q 372.089 0.091 365.051 3.1 A 30.319 30.319 0 0 0 360.852 5.282 A 23.195 23.195 0 0 0 353.951 11.8 A 21.583 21.583 0 0 0 351.681 16.032 A 22.888 22.888 0 0 0 350.101 24.6 A 23.7 23.7 0 0 0 350.473 28.889 A 17.225 17.225 0 0 0 353.551 36.15 Q 357.001 40.8 361.851 43.5 A 66.524 66.524 0 0 0 364.793 45.037 Q 366.829 46.041 369.235 47.083 A 150.11 150.11 0 0 0 374.401 49.2 A 255.857 255.857 0 0 1 375.536 49.657 Q 378.927 51.033 381.375 52.146 A 70.459 70.459 0 0 1 383.701 53.25 A 21.128 21.128 0 0 1 385.376 54.183 A 17.431 17.431 0 0 1 389.201 57.35 Q 391.401 59.8 391.401 63.2 Q 391.401 68.7 386.601 71.75 Q 383.301 73.847 378.252 74.503 A 38.555 38.555 0 0 1 373.301 74.8 A 60.304 60.304 0 0 1 372.966 74.799 Q 367.801 74.771 364.11 73.853 A 18.346 18.346 0 0 1 360.551 72.6 A 10.999 10.999 0 0 1 359.269 71.876 Q 357.824 70.92 357.017 69.64 A 6.866 6.866 0 0 1 356.001 65.9 A 15.712 15.712 0 0 1 356.007 65.474 A 13.805 13.805 0 0 1 356.151 63.8 A 33.354 33.354 0 0 0 356.161 63.733 Q 356.265 63.031 356.292 62.637 A 3.553 3.553 0 0 0 356.301 62.4 Q 356.47 61.557 356.544 60.555 A 22.557 22.557 0 0 0 356.601 58.9 Q 356.601 56.7 354.901 55.3 A 5.943 5.943 0 0 0 352.422 54.106 A 8.515 8.515 0 0 0 350.501 53.9 Q 346.801 53.9 344.901 56.8 A 9.872 9.872 0 0 0 343.757 59.298 Q 343.366 60.556 343.177 62.09 A 25.558 25.558 0 0 0 343.001 65.2 A 23.54 23.54 0 0 0 343.282 68.912 A 16.327 16.327 0 0 0 351.001 80.65 A 27.608 27.608 0 0 0 355.643 82.984 Q 359.311 84.427 363.783 85.104 Z M 22.501 68.4 L 25.201 53.4 A 11.265 11.265 0 0 1 23.591 53.294 Q 21.736 53.025 20.795 52.077 A 3.11 3.11 0 0 1 20.551 51.8 Q 19.301 50.2 19.301 48.2 A 5.997 5.997 0 0 1 19.519 46.541 A 4.502 4.502 0 0 1 20.851 44.4 Q 22.401 43 24.401 43 L 26.901 43 Q 28.001 36.263 29.006 30.802 A 380.138 380.138 0 0 1 29.901 26.1 Q 30.937 20.921 35.654 19.869 A 12.162 12.162 0 0 1 38.301 19.6 Q 43.168 19.6 43.879 23.319 A 7.361 7.361 0 0 1 44.001 24.7 A 20.291 20.291 0 0 1 43.995 25.219 Q 43.98 25.779 43.933 26.174 A 4.997 4.997 0 0 1 43.901 26.4 L 40.901 43 Q 46.301 42.7 50.751 40.4 Q 55.201 38.1 57.851 34 A 16.62 16.62 0 0 0 60.491 25.346 A 20.014 20.014 0 0 0 60.501 24.7 A 14.842 14.842 0 0 0 59.896 20.355 A 11.472 11.472 0 0 0 56.201 14.8 A 13.783 13.783 0 0 0 51.673 12.339 Q 48.27 11.2 43.601 11.2 Q 33.801 11.2 26.451 16.05 A 29.016 29.016 0 0 0 18.041 24.689 A 38.935 38.935 0 0 0 15.001 30.45 Q 11.445 38.732 10.973 50.135 A 86.195 86.195 0 0 0 10.901 53.7 A 52.955 52.955 0 0 0 11.115 58.603 Q 11.341 61.022 11.803 63.114 A 28.238 28.238 0 0 0 12.201 64.7 A 30.915 30.915 0 0 0 13.072 67.351 Q 14.078 69.975 15.358 71.548 A 9.314 9.314 0 0 0 15.401 71.6 A 10.638 10.638 0 0 0 16.338 72.607 Q 17.448 73.641 18.486 73.849 A 2.626 2.626 0 0 0 19.001 73.9 A 2.316 2.316 0 0 0 20.728 73.138 A 3.689 3.689 0 0 0 21.151 72.6 A 5.772 5.772 0 0 0 21.636 71.66 Q 22.153 70.417 22.501 68.4 Z M 436.701 65.8 L 440.401 47.4 A 11.707 11.707 0 0 0 433.89 49.589 A 15.265 15.265 0 0 0 432.651 50.55 A 19.709 19.709 0 0 0 428.535 55.529 A 25.263 25.263 0 0 0 427.001 58.6 Q 424.901 63.6 424.901 69.2 A 12.33 12.33 0 0 0 425 70.818 Q 425.25 72.706 426.135 73.781 A 3.841 3.841 0 0 0 426.151 73.8 A 4.086 4.086 0 0 0 428.937 75.264 A 5.852 5.852 0 0 0 429.601 75.3 Q 431.801 75.3 433.801 72.7 Q 435.801 70.1 436.701 65.8 Z M 261.392 31.529 A 14.478 14.478 0 0 0 263.701 31.7 A 12.934 12.934 0 0 0 266.485 31.416 A 8.852 8.852 0 0 0 270.601 29.35 A 7.555 7.555 0 0 0 272.82 25.821 A 9.921 9.921 0 0 0 273.201 23 A 8.542 8.542 0 0 0 273.145 22.006 A 5.858 5.858 0 0 0 270.901 17.9 A 7.5 7.5 0 0 0 270.413 17.549 Q 269.132 16.703 267.467 16.351 A 12.408 12.408 0 0 0 264.901 16.1 A 12.993 12.993 0 0 0 263.284 16.198 A 9.725 9.725 0 0 0 258.051 18.45 A 9.427 9.427 0 0 0 257.638 18.825 A 7.313 7.313 0 0 0 255.301 24.3 A 9.57 9.57 0 0 0 255.506 26.337 A 6.381 6.381 0 0 0 257.401 29.75 Q 258.877 31.121 261.392 31.529 Z M 97.901 62.8 L 97.901 63 A 31.232 31.232 0 0 0 101.936 61.769 Q 103.982 60.979 105.604 59.952 A 15.789 15.789 0 0 0 107.201 58.8 A 10.841 10.841 0 0 0 109.137 56.769 A 7.5 7.5 0 0 0 110.601 52.3 A 5.579 5.579 0 0 0 110.454 50.984 A 3.877 3.877 0 0 0 109.551 49.25 A 3.462 3.462 0 0 0 107.453 48.155 A 4.943 4.943 0 0 0 106.701 48.1 A 6.081 6.081 0 0 0 102.525 49.78 Q 101.407 50.788 100.451 52.4 Q 97.901 56.7 97.901 62.8 Z M 516.201 62.8 L 516.201 63 A 31.232 31.232 0 0 0 520.236 61.769 Q 522.282 60.979 523.904 59.952 A 15.789 15.789 0 0 0 525.501 58.8 A 10.841 10.841 0 0 0 527.437 56.769 A 7.5 7.5 0 0 0 528.901 52.3 A 5.579 5.579 0 0 0 528.754 50.984 A 3.877 3.877 0 0 0 527.851 49.25 A 3.462 3.462 0 0 0 525.753 48.155 A 4.943 4.943 0 0 0 525.001 48.1 A 6.081 6.081 0 0 0 520.825 49.78 Q 519.707 50.788 518.751 52.4 Q 516.201 56.7 516.201 62.8 Z" vector-effect="non-scaling-stroke"/></g></svg>