<svg xmlns="http://www.w3.org/2000/svg" width="2560" height="713.18" viewBox="0 0 2560 713.18"><defs><style>.cls-1{fill:#441818;}.cls-2{fill:#6b2727;}.cls-3{fill:#f57200;}.cls-4{fill:#f79428;}.cls-5{fill:#b54131;}.cls-6{fill:#e04e3f;}.cls-7{fill:#eb7e35;}.cls-8{fill:#efa052;}.cls-9{fill:#f8cb3c;}.cls-10{fill:#f9dc8a;}.cls-11{fill:#30562e;}.cls-12{fill:#677c48;}.cls-13{fill:#de8937;}</style></defs><title>trees-and-ground</title><g id="Layer_2" data-name="Layer 2"><g id="trees"><rect class="cls-1" x="1419.37" y="385.79" width="16.35" height="37.13"/><rect class="cls-2" x="1429.68" y="385.79" width="6.04" height="37.13"/><polygon class="cls-3" points="1427.55 299.09 1379.3 386.36 1475.79 386.36 1427.55 299.09"/><polygon class="cls-4" points="1427.55 299.09 1457.39 386.36 1475.79 386.36 1427.55 299.09"/><polygon class="cls-3" points="1427.55 283.85 1388.06 352.24 1467.03 352.24 1427.55 283.85"/><polygon class="cls-4" points="1427.55 283.85 1451.57 352.24 1467.03 352.24 1427.55 283.85"/><polygon class="cls-3" points="1427.55 266.95 1395.87 321.81 1459.22 321.81 1427.55 266.95"/><polygon class="cls-4" points="1427.55 266.95 1444.92 321.81 1459.22 321.81 1427.55 266.95"/><rect class="cls-1" x="1714.06" y="379.12" width="21.62" height="49.1"/><rect class="cls-2" x="1727.7" y="379.12" width="7.98" height="49.1"/><polygon class="cls-5" points="1724.87 264.45 1661.06 379.88 1788.67 379.88 1724.87 264.45"/><polygon class="cls-6" points="1724.87 264.45 1764.34 379.88 1788.67 379.88 1724.87 264.45"/><polygon class="cls-5" points="1724.87 244.29 1672.65 334.74 1777.09 334.74 1724.87 244.29"/><polygon class="cls-6" points="1724.87 244.29 1756.64 334.74 1777.09 334.74 1724.87 244.29"/><polygon class="cls-5" points="1724.87 221.94 1682.98 294.5 1766.76 294.5 1724.87 221.94"/><polygon class="cls-6" points="1724.87 221.94 1747.85 294.5 1766.76 294.5 1724.87 221.94"/><rect class="cls-1" x="644.24" y="326.47" width="44.91" height="101.99"/><rect class="cls-2" x="672.57" y="326.47" width="16.58" height="101.99"/><polygon class="cls-5" points="666.7 88.29 534.17 328.05 799.22 328.05 666.7 88.29"/><polygon class="cls-6" points="666.7 88.29 748.68 328.05 799.22 328.05 666.7 88.29"/><polygon class="cls-5" points="666.7 46.43 558.24 234.29 775.15 234.29 666.7 46.43"/><polygon class="cls-6" points="666.7 46.43 732.7 234.29 775.15 234.29 666.7 46.43"/><polygon class="cls-5" points="666.7 0 579.69 150.7 753.7 150.7 666.7 0"/><polygon class="cls-6" points="666.7 0 714.43 150.7 753.7 150.7 666.7 0"/><rect class="cls-1" x="1253.81" y="345.28" width="36.32" height="82.49"/><rect class="cls-2" x="1276.72" y="345.28" width="13.41" height="82.49"/><polygon class="cls-5" points="1271.97 154.64 1164.78 348.55 1379.16 348.55 1271.97 154.64"/><polygon class="cls-6" points="1271.97 154.64 1338.28 348.55 1379.16 348.55 1271.97 154.64"/><polygon class="cls-5" points="1271.97 120.78 1184.25 272.72 1359.69 272.72 1271.97 120.78"/><polygon class="cls-6" points="1271.97 120.78 1325.35 272.72 1359.69 272.72 1271.97 120.78"/><polygon class="cls-5" points="1271.97 83.23 1201.6 205.12 1342.34 205.12 1271.97 83.23"/><polygon class="cls-6" points="1271.97 83.23 1310.58 205.12 1342.34 205.12 1271.97 83.23"/><rect class="cls-1" x="604.44" y="370.29" width="25.19" height="57.22"/><rect class="cls-2" x="620.33" y="370.29" width="9.3" height="57.22"/><polygon class="cls-7" points="617.04 236.66 542.68 371.17 691.39 371.17 617.04 236.66"/><polygon class="cls-8" points="617.04 236.66 663.03 371.17 691.39 371.17 617.04 236.66"/><polygon class="cls-7" points="617.04 213.17 556.19 318.57 677.89 318.57 617.04 213.17"/><polygon class="cls-8" points="617.04 213.17 654.07 318.57 677.89 318.57 617.04 213.17"/><polygon class="cls-7" points="617.04 187.12 568.22 271.67 665.85 271.67 617.04 187.12"/><polygon class="cls-8" points="617.04 187.12 643.82 271.67 665.85 271.67 617.04 187.12"/><rect class="cls-1" x="949.54" y="351.06" width="33.64" height="76.41"/><rect class="cls-2" x="970.76" y="351.06" width="12.42" height="76.41"/><polygon class="cls-7" points="966.36 173.62 867.08 353.24 1065.64 353.24 966.36 173.62"/><polygon class="cls-8" points="966.36 173.62 1027.78 353.24 1065.64 353.24 966.36 173.62"/><polygon class="cls-7" points="966.36 142.26 885.11 283 1047.61 283 966.36 142.26"/><polygon class="cls-8" points="966.36 142.26 1015.8 283 1047.61 283 966.36 142.26"/><polygon class="cls-7" points="966.36 107.48 901.18 220.38 1031.54 220.38 966.36 107.48"/><polygon class="cls-8" points="966.36 107.48 1002.12 220.38 1031.54 220.38 966.36 107.48"/><rect class="cls-1" x="2106.88" y="367.43" width="25.19" height="57.22"/><rect class="cls-2" x="2122.77" y="367.43" width="9.3" height="57.22"/><polygon class="cls-7" points="2119.48 233.8 2045.12 368.31 2193.83 368.31 2119.48 233.8"/><polygon class="cls-8" points="2119.48 233.8 2165.47 368.31 2193.83 368.31 2119.48 233.8"/><polygon class="cls-7" points="2119.48 210.32 2058.63 315.71 2180.33 315.71 2119.48 210.32"/><polygon class="cls-8" points="2119.48 210.32 2156.51 315.71 2180.33 315.71 2119.48 210.32"/><polygon class="cls-7" points="2119.48 184.27 2070.66 268.82 2168.29 268.82 2119.48 184.27"/><polygon class="cls-8" points="2119.48 184.27 2146.26 268.82 2168.29 268.82 2119.48 184.27"/><rect class="cls-1" x="224.02" y="373.64" width="24.9" height="56.54"/><rect class="cls-2" x="239.72" y="373.64" width="9.19" height="56.54"/><polygon class="cls-9" points="236.46 241.6 163 374.51 309.93 374.51 236.46 241.6"/><polygon class="cls-10" points="236.46 241.6 281.91 374.51 309.93 374.51 236.46 241.6"/><polygon class="cls-9" points="236.46 218.39 176.34 322.54 296.59 322.54 236.46 218.39"/><polygon class="cls-10" points="236.46 218.39 273.05 322.54 296.59 322.54 236.46 218.39"/><polygon class="cls-9" points="236.46 192.66 188.23 276.2 284.7 276.2 236.46 192.66"/><polygon class="cls-10" points="236.46 192.66 262.93 276.2 284.7 276.2 236.46 192.66"/><rect class="cls-1" x="1798.47" y="354.71" width="30.6" height="69.5"/><rect class="cls-2" x="1817.77" y="354.71" width="11.3" height="69.5"/><polygon class="cls-9" points="1813.77 192.4 1723.46 355.78 1904.08 355.78 1813.77 192.4"/><polygon class="cls-10" points="1813.77 192.4 1869.63 355.78 1904.08 355.78 1813.77 192.4"/><polygon class="cls-9" points="1813.77 163.88 1739.86 291.89 1887.68 291.89 1813.77 163.88"/><polygon class="cls-10" points="1813.77 163.88 1858.74 291.89 1887.68 291.89 1813.77 163.88"/><polygon class="cls-9" points="1813.77 132.24 1754.47 234.93 1873.06 234.93 1813.77 132.24"/><polygon class="cls-10" points="1813.77 132.24 1846.3 234.93 1873.06 234.93 1813.77 132.24"/><rect class="cls-1" x="1047.17" y="362.98" width="28.73" height="65.25"/><rect class="cls-2" x="1065.29" y="362.98" width="10.61" height="65.25"/><polygon class="cls-5" points="1061.53 210.61 976.75 363.99 1146.32 363.99 1061.53 210.61"/><polygon class="cls-6" points="1061.53 210.61 1113.98 363.99 1146.32 363.99 1061.53 210.61"/><polygon class="cls-5" points="1061.53 183.83 992.15 304.01 1130.92 304.01 1061.53 183.83"/><polygon class="cls-6" points="1061.53 183.83 1103.76 304.01 1130.92 304.01 1061.53 183.83"/><polygon class="cls-5" points="1061.53 154.12 1005.87 250.53 1117.19 250.53 1061.53 154.12"/><polygon class="cls-6" points="1061.53 154.12 1092.07 250.53 1117.19 250.53 1061.53 154.12"/><rect class="cls-1" x="1552.6" y="341.57" width="36.23" height="82.28"/><rect class="cls-2" x="1575.45" y="341.57" width="13.38" height="82.28"/><polygon class="cls-11" points="1570.72 149.41 1463.8 342.84 1677.63 342.84 1570.72 149.41"/><polygon class="cls-12" points="1570.72 149.41 1636.86 342.84 1677.63 342.84 1570.72 149.41"/><polygon class="cls-11" points="1570.72 115.64 1483.21 267.2 1658.22 267.2 1570.72 115.64"/><polygon class="cls-12" points="1570.72 115.64 1623.96 267.2 1658.22 267.2 1570.72 115.64"/><polygon class="cls-11" points="1570.72 78.18 1500.52 199.77 1640.91 199.77 1570.72 78.18"/><polygon class="cls-12" points="1570.72 78.18 1609.23 199.77 1640.91 199.77 1570.72 78.18"/></g><g id="ground"><rect class="cls-13" y="424.18" width="2560" height="289"/></g></g></svg>