<svg xmlns="http://www.w3.org/2000/svg" width="2986" height="219.28" viewBox="0 0 2986 219.28"><defs><style>.cls-1{fill:#37559c;}</style></defs><title>wave-1</title><g id="Layer_2" data-name="Layer 2"><g id="wave_1" data-name="wave 1"><path class="cls-1" d="M2984,3.28c-41.53,8.6-97.56,36.33-162,54-135,37-271,26-348.12-23.84C2454.16,20.7,2435.58,2.86,2416.5.78c-21.51-2.35-27,6-62,22C2231,79.24,2079.11,59.25,1948.81,20.91c-209.72,93.32-458.37,95-669.29,4.39-13.7-5.89-27.74-11.84-42.64-12.55-14.53-.7-25.3,10.4-40.38,16-103.77,38.7-222.32,18.48-328.94-11.51-17.39-4.89-37.21-13.93-61.92-16.13-15.77-1.41-31.2,7.85-44,17.2C697.23,65.53,615.76,58.48,535.5,56.78,465,55.28,427,6.28,378,.28c-37.73-4.62-112,50-215,68-66.24,11.57-128.82-52-163-45l1,196H2986Z"/></g></g></svg>