<svg xmlns="http://www.w3.org/2000/svg" width="2985" height="327" viewBox="0 0 2985 327"><defs><style>.cls-1{fill:#658ec1;}</style></defs><title>wave-2</title><g id="Layer_2" data-name="Layer 2"><g id="wave_2" data-name="wave 2"><path class="cls-1" d="M2985,30.34c-42.71,29.23-148.61,13.88-190,2.16-120,76-359,108-535.37-25.86C2078.9,68,1881,81.76,1694.88,39.57,1661.5,32,1641.5,27,1609.5,0c-148.32,86.67-327.27,71.61-493.32,27.58-15.66-4.15-31.5-8.58-47.7-8.47-18.1.12-35.61,5.86-53,10.8a630.71,630.71,0,0,1-346.82-1.33c-27.54-8-55.09-18.07-83.77-18.22-19.61-.11-39.68,1.93-58,9C341,90.5,231,91.5,124,8.5c0,0-49,42-124,30V327H2985Z"/></g></g></svg>