<svg xmlns="http://www.w3.org/2000/svg" width="2984" height="248.03" viewBox="0 0 2984 248.03"><defs><style>.cls-1{fill:#a4c8e0;}</style></defs><title>wave-3</title><g id="Layer_2" data-name="Layer 2"><g id="wave_3" data-name="wave 3"><path class="cls-1" d="M2984,1c-217.61,115.37-637.19,126-883,0-141,86-357.54,80.19-534.17,50.11-28.57-4.87-57.25-10.92-86.21-9.84-25.31,1-50,7.32-74.94,12-103.49,19.39-210,9.27-314.74-.92C1013.19,44.82,934.23,44.19,861,17c-19-7-25.77-15.44-46-17-13-1-43,20-75,29C550.56,82.31,191,102,0,1V248H2984Z"/></g></g></svg>